<svg id="Calque_1" data-name="Calque 1" xmlns="http://www.w3.org/2000/svg" xmlns:xlink="http://www.w3.org/1999/xlink" viewBox="0 0 1622.5 491.49"><defs><style>.cls-1{fill:url(#Dégradé_sans_nom_53);}.cls-2{fill:#404040;}.cls-3{fill:url(#Dégradé_sans_nom_53-2);}.cls-4{fill:url(#Dégradé_sans_nom_53-3);}.cls-5{fill:url(#Dégradé_sans_nom_53-4);}.cls-6{fill:url(#Dégradé_sans_nom_53-5);}.cls-7{fill:url(#Dégradé_sans_nom_53-6);}.cls-8{fill:url(#Dégradé_sans_nom_53-7);}.cls-9{fill:url(#Dégradé_sans_nom_53-8);}.cls-10{fill:url(#Dégradé_sans_nom_53-9);}.cls-11{fill:url(#Dégradé_sans_nom_53-10);}.cls-12{fill:url(#Dégradé_sans_nom_53-11);}.cls-13{fill:url(#Dégradé_sans_nom_18);}.cls-14{fill:none;stroke-linejoin:round;stroke-width:6px;stroke:url(#Dégradé_sans_nom_16);}.cls-15{fill:url(#Dégradé_sans_nom_16-2);}</style><linearGradient id="Dégradé_sans_nom_53" x1="339.86" y1="393.5" x2="350.68" y2="269.81" gradientUnits="userSpaceOnUse"><stop offset="0.55" stop-color="#3d3d3d"/><stop offset="0.57" stop-color="#4a4a4a"/><stop offset="0.64" stop-color="#727272"/><stop offset="0.71" stop-color="#8e8e8e"/><stop offset="0.77" stop-color="#a0a0a0"/><stop offset="0.81" stop-color="#a6a6a6"/><stop offset="1" stop-color="#bebebe"/></linearGradient><linearGradient id="Dégradé_sans_nom_53-2" x1="419.09" y1="400.44" x2="429.92" y2="276.75" xlink:href="#Dégradé_sans_nom_53"/><linearGradient id="Dégradé_sans_nom_53-3" x1="639.88" y1="664.03" x2="650.66" y2="540.75" xlink:href="#Dégradé_sans_nom_53"/><linearGradient id="Dégradé_sans_nom_53-4" x1="863.7" y1="664.03" x2="874.49" y2="540.75" xlink:href="#Dégradé_sans_nom_53"/><linearGradient id="Dégradé_sans_nom_53-5" x1="965" y1="664.05" x2="975.61" y2="542.8" xlink:href="#Dégradé_sans_nom_53"/><linearGradient id="Dégradé_sans_nom_53-6" x1="1081.93" y1="664.29" x2="1092.59" y2="542.43" xlink:href="#Dégradé_sans_nom_53"/><linearGradient id="Dégradé_sans_nom_53-7" x1="1199.4" y1="663.36" x2="1210.04" y2="541.81" xlink:href="#Dégradé_sans_nom_53"/><linearGradient id="Dégradé_sans_nom_53-8" x1="1317.41" y1="664.05" x2="1328.02" y2="542.8" xlink:href="#Dégradé_sans_nom_53"/><linearGradient id="Dégradé_sans_nom_53-9" x1="1451.56" y1="665.61" x2="1462.39" y2="541.77" xlink:href="#Dégradé_sans_nom_53"/><linearGradient id="Dégradé_sans_nom_53-10" x1="1582.33" y1="663.36" x2="1592.97" y2="541.81" xlink:href="#Dégradé_sans_nom_53"/><linearGradient id="Dégradé_sans_nom_53-11" x1="1700.34" y1="664.05" x2="1710.95" y2="542.8" xlink:href="#Dégradé_sans_nom_53"/><linearGradient id="Dégradé_sans_nom_18" x1="358.91" y1="378.8" x2="465.31" y2="378.8" gradientUnits="userSpaceOnUse"><stop offset="0.05" stop-color="#333"/><stop offset="0.35" stop-color="#6e6e6e"/><stop offset="0.36" stop-color="#727272"/><stop offset="0.48" stop-color="#8e8e8e"/><stop offset="0.59" stop-color="#a0a0a0"/><stop offset="0.66" stop-color="#a6a6a6"/><stop offset="1" stop-color="#bebebe"/></linearGradient><linearGradient id="Dégradé_sans_nom_16" x1="758.34" y1="661.69" x2="733.28" y2="519.58" gradientUnits="userSpaceOnUse"><stop offset="0.21" stop-color="#01a862"/><stop offset="0.31" stop-color="#30b256"/><stop offset="0.4" stop-color="#58bb4c"/><stop offset="0.49" stop-color="#74c145"/><stop offset="0.57" stop-color="#86c541"/><stop offset="0.63" stop-color="#8cc63f"/><stop offset="0.92" stop-color="#d1d700"/></linearGradient><linearGradient id="Dégradé_sans_nom_16-2" x1="720.95" y1="670.73" x2="707.14" y2="592.41" xlink:href="#Dégradé_sans_nom_16"/></defs><rect class="cls-1" x="339.97" y="277.15" width="14.75" height="61.53"/><path class="cls-2" d="M555.61,629.9c-9.15,13.87-21.36,23.93-38.9,23.93-17.29,0-26.19-7.83-26.19-26.39v-14H475.77v15.36c0,23,13.73,35.79,37.63,35.79,20.6,0,34.08-9.4,43.48-23.26l.77,20.79h12.71V613.42H555.61Z" transform="translate(-135.8 -268)"/><rect class="cls-3" x="419.81" y="277.15" width="14.75" height="61.53"/><path class="cls-4" d="M632.65,590.55c7.12-23.93,17-35.56,35.6-35.56a47.72,47.72,0,0,1,11.7,1.34l2.8-12.3a56.52,56.52,0,0,0-13.23-1.34c-18.56,0-30.51,9.39-37.63,28.63l-1.27-26.17H617.91v61.54h14.74Z" transform="translate(-135.8 -268)"/><rect class="cls-2" x="482.11" y="345.42" width="14.75" height="48.68"/><rect class="cls-2" x="705.93" y="345.42" width="14.75" height="48.68"/><path class="cls-5" d="M856.48,590.55c7.12-23.93,17-35.56,35.59-35.56a47.67,47.67,0,0,1,11.7,1.34l2.8-12.3a56.49,56.49,0,0,0-13.22-1.34c-18.57,0-30.52,9.39-37.63,28.63l-1.28-26.17H841.73v61.54h14.75Z" transform="translate(-135.8 -268)"/><path class="cls-2" d="M974.39,664.57c17.55,0,31-5.37,43.48-14.32L1011,642c-11.7,7.6-21.36,11.63-35.85,11.63-21.7,0-37.89-11.89-41-40.19H918.41C921.55,645.64,942.15,664.57,974.39,664.57Z" transform="translate(-135.8 -268)"/><path class="cls-6" d="M1023,599.27c0-34.44-17.29-56.58-51.87-56.58-32.55,0-53.14,24.6-53.14,61.94,0,.71.06,1.36.07,2.06h104.62C1022.82,604.58,1023,601.93,1023,599.27Zm-89.25-.67c1.53-31.76,17-45.17,37.89-45.17,25.17,0,36.86,16.32,36.86,41.81v3.36Z" transform="translate(-135.8 -268)"/><path class="cls-7" d="M1094.92,595.24c-23.91-5.59-32.3-10.51-32.3-22.14,0-12.07,12-19.67,29.5-19.67,13.47,0,23.39,3.58,34.83,11l7.12-8.72c-12.46-8.49-25.42-13-42.46-13-25.17,0-44.25,12.75-44.25,30.41,0,16.55,11.45,25.72,39.67,32.2,1.93.47,3.74.93,5.48,1.39h32.83C1118.31,601.86,1108.25,598.33,1094.92,595.24Z" transform="translate(-135.8 -268)"/><path class="cls-2" d="M1122.12,631.47c0,14.09-13.47,22.14-32.8,22.14-16.27,0-28-4.48-38.9-12.53l-8.4,8.5c11.45,8.5,25.94,15,47.55,15,26.45,0,48.06-12.31,48.06-34,0-7-1.72-12.53-5.15-17.15h-20.94C1119.47,617.7,1122.12,623,1122.12,631.47Z" transform="translate(-135.8 -268)"/><path class="cls-2" d="M1216.45,664.57A62.17,62.17,0,0,0,1254.59,652l-7.37-8.94c-9.16,6.48-18.06,10.06-30.51,10.06-21.81,0-37.56-12.62-40.43-39.74h-15.77C1163.82,645.87,1185.18,664.57,1216.45,664.57Z" transform="translate(-135.8 -268)"/><path class="cls-8" d="M1175.77,604.19c0-33.77,17-50.32,41.19-50.32,12.2,0,20.85,3.14,29.5,9.39l7.37-8.71c-11.19-8.5-22.63-11.86-37.63-11.86-34.08,0-56.2,24.15-56.2,61.72,0,.78.07,1.51.09,2.28h15.76C1175.83,605.85,1175.77,605.05,1175.77,604.19Z" transform="translate(-135.8 -268)"/><path class="cls-2" d="M1326.81,664.57c17.54,0,31-5.37,43.48-14.32l-6.87-8.27c-11.69,7.6-21.36,11.63-35.85,11.63-21.7,0-37.88-11.89-41-40.19h-15.72C1274,645.64,1294.56,664.57,1326.81,664.57Z" transform="translate(-135.8 -268)"/><path class="cls-9" d="M1375.37,599.27c0-34.44-17.29-56.58-51.87-56.58-32.54,0-53.14,24.6-53.14,61.94,0,.71.06,1.36.07,2.06h104.63C1375.23,604.58,1375.37,601.93,1375.37,599.27Zm-89.24-.67c1.52-31.76,17-45.17,37.88-45.17,25.17,0,36.87,16.32,36.87,41.81v3.36Z" transform="translate(-135.8 -268)"/><rect class="cls-2" x="1356.79" y="345.42" width="14.75" height="48.68"/><rect class="cls-2" x="1275.68" y="345.42" width="14.74" height="48.68"/><path class="cls-10" d="M1426.22,577.35c10.94-14.31,23.14-24.15,41.19-24.15,16.28,0,25.18,7.83,25.18,27.06v26.43h14.75V578.47c0-22.58-13-35.78-37.13-35.78-19.32,0-34.07,8.95-44.49,22.36l-1.53-19.9h-12.71v61.54h14.74Z" transform="translate(-135.8 -268)"/><path class="cls-2" d="M1599.38,664.57A62.15,62.15,0,0,0,1637.52,652l-7.37-8.94c-9.15,6.48-18.05,10.06-30.51,10.06-21.81,0-37.55-12.62-40.42-39.74h-15.78C1546.75,645.87,1568.11,664.57,1599.38,664.57Z" transform="translate(-135.8 -268)"/><path class="cls-11" d="M1558.7,604.19c0-33.77,17-50.32,41.19-50.32,12.21,0,20.85,3.14,29.5,9.39l7.37-8.71c-11.19-8.5-22.63-11.86-37.63-11.86-34.07,0-56.19,24.15-56.19,61.72,0,.78.06,1.51.08,2.28h15.76C1558.76,605.85,1558.7,605.05,1558.7,604.19Z" transform="translate(-135.8 -268)"/><path class="cls-12" d="M1758.3,599.27c0-34.44-17.29-56.58-51.87-56.58-32.55,0-53.14,24.6-53.14,61.94,0,.71.06,1.36.07,2.06H1758C1758.16,604.58,1758.3,601.93,1758.3,599.27Zm-89.25-.67c1.53-31.76,17-45.17,37.89-45.17,25.17,0,36.87,16.32,36.87,41.81v3.36Z" transform="translate(-135.8 -268)"/><path class="cls-2" d="M1709.73,664.57c17.55,0,31-5.37,43.48-14.32l-6.86-8.27c-11.7,7.6-21.36,11.63-35.85,11.63-21.7,0-37.89-11.89-41-40.19h-15.72C1656.89,645.64,1677.49,664.57,1709.73,664.57Z" transform="translate(-135.8 -268)"/><path class="cls-13" d="M464.75,268l-.21,0a.78.78,0,0,0-.74.53c-26,78.45-61.2,149.73-104.75,211.85a.77.77,0,0,0,0,.9q3,4,5.78,8a.77.77,0,0,0,.63.33h0c.26,0-2.59-.14-2.45-.36C432.12,382.43,465,270.09,465.28,269A.77.77,0,0,0,464.75,268Z" transform="translate(-135.8 -268)"/><path class="cls-2" d="M206.26,630.82s5-2.82,13.71-8.84C241.72,520,234.21,409.79,231,375.11A116.48,116.48,0,0,0,219.79,370c-.12-.43-.19-.82-.27-1.21C242.58,674,135.8,759.49,135.8,759.49c18.38,0,30.67-8.1,30.67-8.1,23.58-31.48,39.36-71.22,49.75-113.18-4.21,2.55-8.47,5-12.81,7.39Z" transform="translate(-135.8 -268)"/><path class="cls-2" d="M229.88,364s.47,3.95,1.13,11.1c22.07,11.18,73.17,42.7,121.06,113,2.35-3.23,4.7-6.5,7.05-9.86-32.54-44.09-75.87-87.11-132.7-116.93,0,0-8.76-1.66-6.9,7.43,0-.62-.08-1.22-.13-1.84Z" transform="translate(-135.8 -268)"/><path class="cls-2" d="M364.91,486.31q-3.44,5.32-7,10.63c19.23,29.72,37.71,65.89,53.32,109.74h17.72C416.3,574.07,395.83,530,364.91,486.31Z" transform="translate(-135.8 -268)"/><path class="cls-2" d="M431.5,613.42h-18c6.2,18.08,11.94,37.38,17,58.08,0,0,9.44.5,18.44.5C449,672,441.71,640.79,431.5,613.42Z" transform="translate(-135.8 -268)"/><path class="cls-2" d="M231,375.11c-.66-7.15-1.13-11.1-1.13-11.1L219.39,367c.05.62.09,1.22.13,1.84.08.39.15.78.27,1.21A116.48,116.48,0,0,1,231,375.11Z" transform="translate(-135.8 -268)"/><path class="cls-2" d="M220,622q-1.75,8.16-3.75,16.23C274.74,602.94,321.49,551,357.9,496.94c-1.93-3-3.88-5.92-5.83-8.79C297.31,563.49,244.21,605.2,220,622Z" transform="translate(-135.8 -268)"/><path class="cls-2" d="M206.26,630.82l-2.85,14.78c4.34-2.36,8.6-4.84,12.81-7.39q2-8.07,3.75-16.23C211.25,628,206.26,630.82,206.26,630.82Z" transform="translate(-135.8 -268)"/><path class="cls-2" d="M359.12,478.29c-2.35,3.36-4.7,6.63-7.05,9.86,1.95,2.87,3.9,5.79,5.83,8.79q3.59-5.31,7-10.63Q362.07,482.3,359.12,478.29Z" transform="translate(-135.8 -268)"/><path class="cls-14" d="M701.41,656.78s-30.87-31.25-6.17-62.51,95.69-25,92.6-81.27c0,0,43.22,62.51,3.09,115.65S701.41,656.78,701.41,656.78Z" transform="translate(-135.8 -268)"/><path class="cls-15" d="M649.61,677.08l9.13,4.62S722.65,667.84,777.42,580C777.42,580,715.8,665.53,649.61,677.08Z" transform="translate(-135.8 -268)"/></svg>