<?xml version="1.0" encoding="utf-8"?>
<!-- Generator: Adobe Illustrator 25.3.1, SVG Export Plug-In . SVG Version: 6.00 Build 0)  -->
<svg version="1.1" id="Calque_1" xmlns="http://www.w3.org/2000/svg" xmlns:xlink="http://www.w3.org/1999/xlink" x="0px" y="0px"
	 viewBox="0 0 1920 1080" style="enable-background:new 0 0 1920 1080;" xml:space="preserve">
<style type="text/css">
	.st0{fill:#212121;}
</style>
<g>
	<path class="st0" d="M1804.23,509.74L979.79,33.75c-16.93-9.77-38.56-3.97-48.33,12.95c-9.77,16.92-3.97,38.56,12.95,48.33
		l710.19,410.03H134.13c-19.54,0-35.38,15.84-35.38,35.38c0,19.54,15.84,35.38,35.38,35.38h1520.24L944.41,985.72
		c-16.92,9.78-22.72,31.41-12.95,48.33c6.56,11.35,18.45,17.7,30.68,17.7c6,0,12.09-1.53,17.66-4.75l824.43-475.98
		c10.95-6.32,17.69-18.01,17.69-30.65C1821.92,527.74,1815.18,516.06,1804.23,509.74z"/>
</g>
</svg>
